<svg fill="none" height="190" viewBox="0 0 150 190" width="150" xmlns="http://www.w3.org/2000/svg"><path clip-rule="evenodd" d="m91.597 148.515-38.549-.789s-.436-71.9868-.433-74.9548c.004-5.723 1.57-10.257 6.978-10.257 8.543 0 23.172.79 32.004.79 5.248 0 6.887 2.744 6.978 7.89.214 12.044 0 33.1378 0 33.1378s3.34 21.989 4.651 27.615c1.32 5.662-.91 6.307-3.101 8.679-3.927 4.249-8.528 7.889-8.528 7.889zm0-42.605.775-35.2928-32.562-.79.216 37.6598 3.876 26.037 32.348.79zm-14.288 3.972c13.833 0 16.265 19.621 2.755 19.621-14.792 0-16.64-19.621-2.755-19.621zm1.837 14.083c5.88 0 4.822-8.54-1.199-8.54-6.045 0-5.24 8.54 1.199 8.54zm-6.514-29.9098-.259-17.01 7.766.171-.239 17.073z" fill="#000" fill-rule="evenodd"/></svg>