<svg fill="none" height="190" viewBox="0 0 150 190" width="150" xmlns="http://www.w3.org/2000/svg"><path clip-rule="evenodd" d="m103.226 79.0832c-1.312 5.625-4.651 29.8728-4.651 29.8728s.213 18.835 0 30.879c-.092 5.146-1.729 7.89-6.978 7.89-8.833 0-23.46.79-32.004.79-5.408 0-6.974-4.534-6.977-10.257-.002-2.967.432-74.9538.432-74.9538l38.549-.79s4.602 3.64 8.528 7.89c2.19 2.372 4.421 3.018 3.101 8.679zm-25.488 59.0608c14.17 0 14.081-21.497.242-21.497-15.152 0-14.466 21.497-.242 21.497zm6.697-52.5228-7.016-.516-2.41 15.4898h6.499zm4.869-17.315-30.304.981-.196 38.4458 1.36.144 2.712-30.9398 34.627-.631zm-11.508 53.5708c7.103 0 7.148 11.032-.125 11.032-7.299 0-7.651-11.032.125-11.032z" fill="#000" fill-rule="evenodd"/></svg>